<svg width="800" height="400" viewBox="0 0 800 400" fill="none" xmlns="http://www.w3.org/2000/svg">
  <rect width="800" height="400" fill="#212529"/>
  <defs>
    <linearGradient id="grad1" x1="0%" y1="0%" x2="100%" y2="100%">
      <stop offset="0%" style="stop-color:#0d6efd;stop-opacity:1" />
      <stop offset="100%" style="stop-color:#6f42c1;stop-opacity:1" />
    </linearGradient>
  </defs>
  <circle cx="400" cy="200" r="100" stroke="url(#grad1)" stroke-width="2" opacity="0.3"/>
  <circle cx="400" cy="200" r="120" stroke="url(#grad1)" stroke-width="1" opacity="0.2"/>
  <g opacity="0.8">
    <circle cx="400" cy="200" r="60" fill="url(#grad1)" opacity="0.2"/>
    <path d="M400 140V260M340 200H460" stroke="#0d6efd" stroke-width="2"/>
    <!-- Neural Network nodes -->
    <circle cx="300" cy="150" r="8" fill="#0d6efd"/>
    <circle cx="500" cy="250" r="8" fill="#6f42c1"/>
    <circle cx="350" cy="100" r="6" fill="#0d6efd"/>
    <circle cx="450" cy="300" r="6" fill="#6f42c1"/>
    <circle cx="550" cy="150" r="10" fill="#0d6efd"/>
    <circle cx="250" cy="250" r="10" fill="#6f42c1"/>
    <!-- Connecting lines -->
    <line x1="300" y1="150" x2="400" y2="200" stroke="#0d6efd" stroke-width="1" opacity="0.5"/>
    <line x1="500" y1="250" x2="400" y2="200" stroke="#6f42c1" stroke-width="1" opacity="0.5"/>
    <line x1="350" y1="100" x2="300" y2="150" stroke="#0d6efd" stroke-width="1" opacity="0.3"/>
    <line x1="450" y1="300" x2="500" y2="250" stroke="#6f42c1" stroke-width="1" opacity="0.3"/>
    <line x1="550" y1="150" x2="400" y2="200" stroke="#0d6efd" stroke-width="1" opacity="0.4"/>
    <line x1="250" y1="250" x2="400" y2="200" stroke="#6f42c1" stroke-width="1" opacity="0.4"/>
  </g>
  <text x="400" y="380" text-anchor="middle" fill="white" font-family="Outfit, sans-serif" font-weight="bold" font-size="16" opacity="0.5">AI STRATEGY SYSTEM</text>
</svg>
