<?xml version="1.0" encoding="UTF-8"?>
<svg width="1920" height="1080" viewBox="0 0 1920 1080" fill="none" xmlns="http://www.w3.org/2000/svg">
  <defs>
    <linearGradient id="bg" x1="0" y1="0" x2="1920" y2="1080" gradientUnits="userSpaceOnUse">
      <stop offset="0%" stop-color="#0F172A"/>
      <stop offset="100%" stop-color="#020617"/>
    </linearGradient>
    <radialGradient id="halo" cx="0" cy="0" r="1" gradientUnits="userSpaceOnUse" gradientTransform="translate(940 540) scale(650)">
      <stop offset="0%" stop-color="#3B82F6" stop-opacity="0.15"/>
      <stop offset="100%" stop-color="#3B82F6" stop-opacity="0"/>
    </radialGradient>
  </defs>
  <rect width="1920" height="1080" rx="40" fill="url(#bg)"/>
  <rect width="1920" height="1080" fill="url(#halo)" opacity="0.9"/>
  <g stroke="#38BDF8" stroke-opacity="0.25" stroke-width="1.5">
    <path d="M120 920L420 680L820 860L1220 520L1620 700"/>
    <path d="M220 220L620 420L1020 160L1420 360"/>
    <path d="M160 560L460 360L860 520L1260 280L1660 640"/>
  </g>
  <g fill="#fff" fill-opacity="0.8">
    <circle cx="420" cy="680" r="24"/>
    <circle cx="820" cy="860" r="20"/>
    <circle cx="1220" cy="520" r="18"/>
    <circle cx="1620" cy="700" r="22"/>
    <circle cx="220" cy="220" r="16"/>
    <circle cx="620" cy="420" r="18"/>
    <circle cx="1020" cy="160" r="14"/>
    <circle cx="1420" cy="360" r="20"/>
    <circle cx="460" cy="360" r="17"/>
    <circle cx="860" cy="520" r="19"/>
    <circle cx="1260" cy="280" r="15"/>
    <circle cx="1660" cy="640" r="16"/>
  </g>
  <g stroke="#38BDF8" stroke-opacity="0.35" stroke-width="2">
    <line x1="320" y1="860" x2="620" y2="520"/>
    <line x1="720" y1="760" x2="1120" y2="420"/>
    <line x1="1320" y1="640" x2="1520" y2="420"/>
    <line x1="420" y1="320" x2="720" y2="120"/>
  </g>
</svg>
