<?xml version="1.0" encoding="UTF-8"?>
<svg width="360" height="220" viewBox="0 0 360 220" xmlns="http://www.w3.org/2000/svg" role="presentation" aria-hidden="true">
  <defs>
    <linearGradient id="web3-gradient" x1="0%" y1="0%" x2="100%" y2="100%">
      <stop offset="0%" stop-color="#047857"/>
      <stop offset="100%" stop-color="#0ea5e9"/>
    </linearGradient>
    <radialGradient id="web3-radial" cx="50%" cy="50%" r="60%">
      <stop offset="0%" stop-color="#ffffff" stop-opacity="0.25"/>
      <stop offset="100%" stop-color="#ffffff" stop-opacity="0"/>
    </radialGradient>
  </defs>
  <rect width="100%" height="100%" rx="24" ry="24" fill="url(#web3-gradient)"/>
  <circle cx="260" cy="70" r="18" fill="#fdf2f8"/>
  <circle cx="70" cy="100" r="22" fill="#ffffff15"/>
  <path d="M60 140 L110 80 L170 120 L230 70 L290 130" fill="none" stroke="#ffffffbb" stroke-width="3" stroke-linecap="round" stroke-dasharray="6 6"/>
  <path d="M80 60 L120 110" fill="none" stroke="#cbd5f5" stroke-width="2"/>
  <circle cx="150" cy="150" r="10" fill="#facc15"/>
  <circle cx="210" cy="140" r="8" fill="#ec4899"/>
  <circle cx="280" cy="160" r="12" fill="#ffffff60"/>
  <rect x="40" y="20" width="60" height="36" rx="10" fill="#ffffff20"/>
  <rect x="120" y="20" width="80" height="18" rx="8" fill="#ffffff30"/>
  <circle cx="60" cy="200" r="8" fill="#f97316"/>
  <circle cx="300" cy="40" r="6" fill="#8b5cf6"/>
  <rect x="220" y="130" width="90" height="32" rx="14" fill="url(#web3-radial)"/>
  <circle cx="180" cy="70" r="5" fill="#f9fafb"/>
</svg>
