<svg width="800" height="400" viewBox="0 0 800 400" fill="none" xmlns="http://www.w3.org/2000/svg">
  <rect width="800" height="400" fill="#212529"/>
  <defs>
    <linearGradient id="grad2" x1="0%" y1="0%" x2="100%" y2="100%">
      <stop offset="0%" style="stop-color:#20c997;stop-opacity:1" />
      <stop offset="100%" style="stop-color:#adb5bd;stop-opacity:1" />
    </linearGradient>
  </defs>
  <!-- Decentralized Hub -->
  <g opacity="0.8">
    <circle cx="400" cy="200" r="80" stroke="url(#grad2)" stroke-width="2" opacity="0.6"/>
    <path d="M400 160L440 200L400 240L360 200L400 160Z" fill="url(#grad2)" opacity="0.4"/>
    <!-- Decentralized Nodes -->
    <rect x="250" y="100" width="30" height="30" rx="4" stroke="#20c997" stroke-width="2"/>
    <rect x="520" y="100" width="30" height="30" rx="4" stroke="#20c997" stroke-width="2"/>
    <rect x="250" y="270" width="30" height="30" rx="4" stroke="#adb5bd" stroke-width="2"/>
    <rect x="520" y="270" width="30" height="30" rx="4" stroke="#adb5bd" stroke-width="2"/>
    <rect x="385" y="50" width="30" height="30" rx="4" stroke="#20c997" stroke-width="2"/>
    <rect x="385" y="320" width="30" height="30" rx="4" stroke="#adb5bd" stroke-width="2"/>
    <!-- Connectivity -->
    <path d="M280 115H385M415 115H520" stroke="#20c997" stroke-width="1" opacity="0.3"/>
    <path d="M280 285H385M415 285H520" stroke="#adb5bd" stroke-width="1" opacity="0.3"/>
    <path d="M400 80V160M400 240V320" stroke="#20c997" stroke-width="1" opacity="0.3"/>
    <line x1="280" y1="130" x2="360" y2="180" stroke="#20c997" stroke-width="1" opacity="0.2"/>
    <line x1="520" y1="130" x2="440" y2="180" stroke="#20c997" stroke-width="1" opacity="0.2"/>
    <line x1="280" y1="270" x2="360" y2="220" stroke="#adb5bd" stroke-width="1" opacity="0.2"/>
    <line x1="520" y1="270" x2="440" y2="220" stroke="#adb5bd" stroke-width="1" opacity="0.2"/>
  </g>
  <text x="400" y="380" text-anchor="middle" fill="white" font-family="Outfit, sans-serif" font-weight="bold" font-size="16" opacity="0.5">WEB3 DECENTRALIZED PROTOCOL</text>
</svg>
